<svg width="168" height="35" viewBox="0 0 168 35" fill="none" xmlns="http://www.w3.org/2000/svg">
<path d="M38.0215 34.5561V2.2416H49.0963C52.7509 2.2416 55.5326 2.974 57.4413 4.43881C59.35 5.90362 60.3043 8.08604 60.3043 10.9861C60.3043 12.4657 59.9048 13.7973 59.1058 14.981C58.3068 16.1647 57.138 17.082 55.5992 17.733C57.3451 18.2065 58.6915 19.1017 59.6385 20.4185C60.6002 21.7206 61.0811 23.289 61.0811 25.1237C61.0811 28.1568 60.1046 30.4872 58.1515 32.1148C56.2132 33.7423 53.4316 34.5561 49.8065 34.5561H38.0215ZM43.6366 19.9746V30.0729H49.8731C51.6338 30.0729 53.0099 29.6364 54.0012 28.7635C54.9925 27.8905 55.4882 26.6772 55.4882 25.1237C55.4882 21.765 53.7719 20.0486 50.3392 19.9746H43.6366ZM43.6366 15.8465H49.1407C50.8866 15.8465 52.2479 15.4545 53.2244 14.6703C54.2157 13.8713 54.7114 12.7468 54.7114 11.2968C54.7114 9.6988 54.2527 8.54471 53.3354 7.8345C52.4328 7.12429 51.0198 6.76919 49.0963 6.76919H43.6366V15.8465Z" fill="white"/>
<path d="M71.3697 34.5561H65.9766V10.5422H71.3697V34.5561Z" fill="white"/>
<path d="M107.784 22.3272C107.784 19.9746 108.251 17.8588 109.183 15.9797C110.115 14.0858 111.424 12.6358 113.111 11.6297C114.798 10.6088 116.736 10.0983 118.926 10.0983C122.166 10.0983 124.793 11.1414 126.805 13.2277C128.832 15.3139 129.927 18.0807 130.089 21.5282L130.112 22.7933C130.112 25.1607 129.653 27.2765 128.736 29.1408C127.833 31.0051 126.531 32.4477 124.83 33.4686C123.143 34.4895 121.19 35 118.97 35C115.582 35 112.867 33.8755 110.825 31.6265C108.798 29.3627 107.784 26.3517 107.784 22.5935V22.3272ZM113.178 22.7933C113.178 25.2642 113.688 27.2025 114.709 28.6081C115.73 29.9989 117.15 30.6944 118.97 30.6944C120.79 30.6944 122.203 29.9841 123.209 28.5637C124.23 27.1433 124.741 25.0645 124.741 22.3272C124.741 19.9007 124.215 17.9772 123.165 16.5568C122.129 15.1363 120.716 14.4261 118.926 14.4261C117.165 14.4261 115.767 15.1289 114.731 16.5346C113.695 17.9254 113.178 20.0116 113.178 22.7933Z" fill="white"/>
<path d="M148.133 28.0311C148.133 27.0693 147.734 26.3369 146.935 25.8339C146.151 25.3308 144.841 24.8869 143.006 24.5022C141.172 24.1175 139.64 23.6293 138.412 23.0374C135.719 21.7354 134.373 19.8489 134.373 17.3779C134.373 15.3065 135.246 13.5754 136.992 12.1845C138.738 10.7937 140.957 10.0983 143.65 10.0983C146.52 10.0983 148.836 10.8085 150.597 12.2289C152.372 13.6493 153.26 15.4914 153.26 17.7552H147.867C147.867 16.7195 147.482 15.8613 146.713 15.1807C145.943 14.4853 144.923 14.1376 143.65 14.1376C142.466 14.1376 141.497 14.4113 140.743 14.9588C140.003 15.5062 139.633 16.2386 139.633 17.156C139.633 17.9846 139.981 18.6282 140.676 19.0869C141.371 19.5456 142.777 20.0116 144.893 20.4851C147.009 20.9438 148.666 21.4986 149.864 22.1497C151.078 22.7859 151.973 23.5553 152.55 24.4578C153.142 25.3604 153.438 26.4553 153.438 27.7425C153.438 29.9028 152.542 31.6561 150.752 33.0025C148.962 34.3342 146.617 35 143.717 35C141.749 35 139.995 34.6449 138.457 33.9347C136.918 33.2245 135.719 32.2479 134.861 31.0051C134.003 29.7622 133.574 28.4232 133.574 26.9879H138.812C138.886 28.2604 139.367 29.2443 140.254 29.9398C141.142 30.6204 142.318 30.9607 143.783 30.9607C145.204 30.9607 146.284 30.6944 147.024 30.1617C147.763 29.6142 148.133 28.904 148.133 28.0311Z" fill="white"/>
<path d="M163.092 4.70514V10.5422H167.464V14.5371H163.092V27.9423C163.092 28.8596 163.269 29.5255 163.624 29.9398C163.994 30.3393 164.645 30.539 165.577 30.539C166.199 30.539 166.828 30.465 167.464 30.3171V34.4895C166.236 34.8298 165.052 35 163.913 35C159.77 35 157.698 32.714 157.698 28.142V4.70514H163.092Z" fill="white"/>
<path d="M77.4778 8.34497C77.4778 5.68168 78.2176 3.62503 79.6972 2.17502C81.1768 0.725006 83.2483 0 85.9116 0C86.8585 0 88.7982 0.469098 89.7127 0.797248L88.7968 4.61636C88.2049 4.498 87.5169 4.43881 86.7327 4.43881C84.1582 4.43881 82.871 5.76306 82.871 8.41155V10.5422H89.6174L88.5116 14.6703L82.871 14.5371V34.5561H77.4778V8.34497Z" fill="white"/>
<path d="M65.976 2.94227H71.3697V6.98753H65.976V2.94227Z" fill="white"/>
<path d="M107.105 10.5422L106.096 14.5371H98.9228V34.5561H93.5297V10.5422H107.105Z" fill="white"/>
<g clip-path="url(#clip0)">
<path d="M32.0181 10.542H24.0136L0 34.5556H16.0091L32.0181 10.542Z" fill="white"/>
</g>
<defs>
<clipPath id="clip0">
<path d="M0 2.53735H32.0181V34.5555H0V2.53735Z" fill="white"/>
</clipPath>
</defs>
</svg>
